<svg width="400" height="560" viewBox="0 0 400 560" fill="none" xmlns="http://www.w3.org/2000/svg">
  <rect width="400" height="560" rx="28" fill="#EFE4D1"/>
  <rect x="18" y="18" width="364" height="524" rx="22" fill="#D3B17B"/>
  <rect x="30" y="30" width="340" height="500" rx="18" fill="#F7F0E3"/>
  <rect x="48" y="52" width="304" height="286" rx="14" fill="#7B4B33"/>
  <circle cx="200" cy="174" r="92" fill="#E8D6BA"/>
  <rect x="138" y="136" width="124" height="130" rx="60" fill="#F4E8D7"/>
  <rect x="148" y="248" width="104" height="56" rx="16" fill="#D4B182"/>
  <path d="M112 325C149 293 249 293 288 325V348H112V325Z" fill="#28342D"/>
  <path d="M165 208H235L246 264H154L165 208Z" fill="#EFE4D1"/>
  <path d="M132 92C171 66 231 66 268 92" stroke="#F4E8D7" stroke-width="16" stroke-linecap="round"/>
  <text x="48" y="396" fill="#23312B" font-family="Georgia, serif" font-size="24" letter-spacing="3">1933 Goudey</text>
  <text x="48" y="444" fill="#18211D" font-family="Georgia, serif" font-size="48">Babe Ruth</text>
  <text x="48" y="482" fill="#59655E" font-family="Arial, sans-serif" font-size="18" letter-spacing="4">YANKEES • #144</text>
</svg>
